<?xml version="1.0" encoding="utf-8"?>
<!-- Generator: Adobe Illustrator 19.1.0, SVG Export Plug-In . SVG Version: 6.00 Build 0)  -->
<svg version="1.1" id="Layer_1" xmlns="http://www.w3.org/2000/svg" xmlns:xlink="http://www.w3.org/1999/xlink" x="0px" y="0px"
	 viewBox="-114 170 270.5 161" style="enable-background:new -114 170 270.5 161;" xml:space="preserve">
<style type="text/css">
	.st0{fill:none;stroke:#808080;stroke-width:2;stroke-miterlimit:10;}
	.st1{fill:none;stroke:#808080;stroke-linejoin:bevel;stroke-miterlimit:10;}
	.st2{fill:none;stroke:#F15A22;stroke-linejoin:bevel;stroke-dasharray:1.9644,1.9644;}
	.st3{fill:none;}
	.st4{font-family:'PoiretOne-Regular';}
	.st5{font-size:12px;}
	.st6{stroke:#000000;stroke-miterlimit:10;}
</style>
<path d="M-95.1,187.7c0,4.9-3,7.5-6.6,7.5c-3.7,0-6.4-2.9-6.4-7.2c0-4.5,2.8-7.4,6.6-7.4C-97.6,180.5-95.1,183.5-95.1,187.7z
	 M-106.1,187.9c0,3,1.6,5.7,4.5,5.7c2.9,0,4.5-2.7,4.5-5.9c0-2.8-1.5-5.8-4.5-5.8C-104.6,182-106.1,184.8-106.1,187.9z"/>
<path d="M-83.5,189.7c0,3.8-2.6,5.4-5.1,5.4c-2.8,0-4.9-2-4.9-5.2c0-3.4,2.2-5.4,5-5.4C-85.6,184.5-83.5,186.6-83.5,189.7z
	 M-91.6,189.8c0,2.2,1.3,3.9,3.1,3.9c1.8,0,3.1-1.7,3.1-3.9c0-1.7-0.9-3.9-3-3.9S-91.6,187.9-91.6,189.8z"/>
<path d="M-81.2,188.1c0-1.3,0-2.4-0.1-3.3h1.7l0.1,1.7l0,0c0.8-1.2,2-2,3.6-2c2.5,0,4.3,2.1,4.3,5.2c0,3.7-2.2,5.5-4.6,5.5
	c-1.3,0-2.5-0.6-3.1-1.6l0,0v5.5h-1.8L-81.2,188.1L-81.2,188.1z M-79.4,190.8c0,0.3,0,0.5,0.1,0.8c0.4,1.2,1.5,2.1,2.8,2.1
	c2,0,3.1-1.6,3.1-3.9c0-2-1.1-3.8-3-3.8c-1.3,0-2.4,0.9-2.8,2.3c-0.1,0.2-0.1,0.5-0.1,0.8L-79.4,190.8L-79.4,190.8z"/>
<path d="M-69.5,193c0.6,0.4,1.5,0.7,2.4,0.7c1.3,0,2-0.7,2-1.5c0-0.9-0.5-1.4-1.9-1.9c-1.8-0.6-2.7-1.6-2.7-2.8c0-1.6,1.3-3,3.5-3
	c1,0,1.9,0.3,2.5,0.6l-0.5,1.3c-0.4-0.3-1.1-0.6-2.1-0.6c-1.1,0-1.7,0.6-1.7,1.4c0,0.8,0.6,1.2,1.9,1.7c1.9,0.8,2.8,1.7,2.8,3.2
	c0,1.8-1.4,3-3.8,3c-1.1,0-2.1-0.3-2.9-0.7L-69.5,193z"/>
<path d="M-61.6,193.8c0-0.8,0.5-1.3,1.3-1.3s1.2,0.5,1.2,1.3s-0.5,1.3-1.3,1.3C-61.1,195.1-61.6,194.6-61.6,193.8z"/>
<path d="M-57.2,193.8c0-0.8,0.5-1.3,1.3-1.3c0.8,0,1.2,0.5,1.2,1.3s-0.5,1.3-1.3,1.3C-56.8,195.1-57.2,194.6-57.2,193.8z"/>
<path d="M-52.9,193.8c0-0.8,0.5-1.3,1.3-1.3c0.8,0,1.2,0.5,1.2,1.3s-0.5,1.3-1.3,1.3C-52.4,195.1-52.9,194.6-52.9,193.8z"/>
<path d="M60,228.4h3.2v25.7H60V228.4z"/>
<path d="M84.3,245.2c0,6.5-4.5,9.3-8.7,9.3c-4.7,0-8.4-3.5-8.4-9c0-5.9,3.8-9.3,8.7-9.3C81,236.2,84.3,239.8,84.3,245.2z
	 M70.5,245.4c0,3.8,2.2,6.7,5.3,6.7c3,0,5.3-2.9,5.3-6.8c0-3-1.5-6.7-5.3-6.7S70.5,242.1,70.5,245.4z"/>
<path d="M98.2,254.1l-0.3-2.2h-0.1c-1,1.4-2.9,2.6-5.4,2.6c-3.5,0-5.4-2.5-5.4-5c0-4.2,3.8-6.6,10.5-6.5v-0.4c0-1.4-0.4-4.1-4-4.1
	c-1.6,0-3.3,0.5-4.6,1.3l-0.7-2.1c1.4-0.9,3.5-1.6,5.8-1.6c5.4,0,6.7,3.7,6.7,7.2v6.6c0,1.5,0.1,3,0.3,4.2
	C100.9,254.1,98.2,254.1,98.2,254.1z M97.7,245.2c-3.5-0.1-7.4,0.5-7.4,3.9c0,2.1,1.4,3,3,3c2.3,0,3.7-1.4,4.2-2.9
	c0.1-0.3,0.2-0.7,0.2-1V245.2z"/>
<path d="M121,228.4v21.2c0,1.6,0,3.3,0.1,4.5h-2.9l-0.1-3H118c-1,2-3.1,3.4-6,3.4c-4.2,0-7.5-3.6-7.5-8.9c0-5.8,3.6-9.4,7.9-9.4
	c2.7,0,4.5,1.3,5.3,2.7h0.1v-10.5H121z M117.8,243.7c0-0.4,0-0.9-0.1-1.3c-0.5-2-2.2-3.7-4.6-3.7c-3.3,0-5.3,2.9-5.3,6.8
	c0,3.5,1.7,6.5,5.2,6.5c2.1,0,4.1-1.4,4.7-3.8c0.1-0.4,0.1-0.9,0.1-1.4L117.8,243.7L117.8,243.7z"/>
<g>
	<path class="st0" d="M-32.8,259c5.1,22.6,3.9,53.2,26.8,32.6c38.6-34.9,5.2,20.3,67.8-9.2"/>
	<line class="st1" x1="66.4" y1="270.3" x2="70.8" y2="262.1"/>
	<line class="st1" x1="71.8" y1="272.8" x2="76.3" y2="264.7"/>
	<path class="st0" d="M61.7,282L61.7,282c-3.5-2-5.4-4.8-4.4-6.3l3.8-5.1c1.1-1.5,4.8-1,8.3,1l0,0c3.5,2,5.4,4.8,4.4,6.3L70,283
		C68.9,284.5,65.2,284,61.7,282z"/>
	<g>
		<path class="st2" d="M61.7,282L61.7,282c-3.5-2-5.4-4.8-4.4-6.3l3.8-5.1c1.1-1.5,4.8-1,8.3,1l0,0c3.5,2,5.4,4.8,4.4,6.3L70,283
			C68.9,284.5,65.2,284,61.7,282z"/>
	</g>
</g>
<line class="st1" x1="73.3" y1="248.9" x2="73.7" y2="242"/>
<line class="st1" x1="78" y1="248.7" x2="78.2" y2="241.8"/>
<rect x="0.5" y="238.7" class="st3" width="41.6" height="20.3"/>
<text transform="matrix(1 0 0 1 0.4536 247.6949)" class="st4 st5">did not...</text>
<path d="M-11,231.1c0-2.4-0.3-4.8-0.9-7l-6-0.6l4.1-4.5c-1.2-2.6-2.8-5-4.7-7.1l-5.8,2.3l1.6-6.2c-2.2-1.7-4.7-3-7.3-4l-4.2,4.9
	l-1.5-6.4c-1.4-0.2-2.7-0.3-4.2-0.3s-2.8,0.1-4.2,0.3l-1.5,6.4l-4.2-4.9c-2.7,1-5.1,2.3-7.3,4l1.6,6.2l-5.8-2.3
	c-1.9,2.1-3.5,4.5-4.7,7.1l4.1,4.5l-6,0.6c-0.6,2.2-0.9,4.6-0.9,7c0,0.5,0,1,0,1.6l5.4,2l-4.7,3.1c0.7,2.9,1.8,5.6,3.3,8.1l5.4-0.7
	l-2.5,4.7c1.9,2.3,4.2,4.2,6.8,5.8l4.2-3l-0.1,5.1c2.7,1.1,5.7,1.8,8.7,2.1l2.3-4.5l2.3,4.5c3.1-0.2,6-1,8.7-2.1l-0.1-5.1l4.2,3
	c2.5-1.6,4.8-3.5,6.8-5.8l-2.5-4.7l5.4,0.7c1.5-2.5,2.6-5.2,3.3-8.1l-4.7-3.1l5.4-2C-11.1,232.1-11,231.6-11,231.1z M-39.9,246.1
	c-8.3,0-15.1-6.7-15.1-15.1s6.7-15.1,15.1-15.1s15.1,6.7,15.1,15.1S-31.6,246.1-39.9,246.1z"/>
<text transform="matrix(1 0 0 1 -48.2258 235.0302)" class="st6 st4 st5">API</text>
</svg>
